<?xml version="1.0" encoding="utf-8"?>
<svg version="1.1" id="图层_1" xmlns="http://www.w3.org/2000/svg" xmlns:xlink="http://www.w3.org/1999/xlink" x="0px" y="0px"
	 viewBox="0 0 30 90" style="enable-background:new 0 0 30 90;" xml:space="preserve">
<style type="text/css">.st0{opacity:0.5;fill:#DADADA;}.st1{fill:#ffac2d;}</style>
<path class="st0" d="M15.8,25l6.6,4c1.2,0.7,2.6-0.3,2.3-1.7L23,19.8c-0.1-0.6,0.1-1.2,0.5-1.5l5.9-5.1c1-0.9,0.5-2.6-0.9-2.7
	l-7.7-0.7c-0.6,0-1.1-0.4-1.3-0.9l-3-7.1c-0.5-1.3-2.3-1.3-2.9,0l-3,7.1c-0.2,0.5-0.7,0.9-1.3,0.9l-7.7,0.7
	c-1.4,0.1-1.9,1.8-0.9,2.7l5.9,5.1c0.4,0.4,0.6,1,0.5,1.5l-1.8,7.6c-0.3,1.3,1.1,2.4,2.3,1.7l6.6-4C14.7,24.7,15.3,24.7,15.8,25
	L15.8,25z"/>
<path class="st1" d="M15.8,55l6.6,4c1.2,0.7,2.6-0.3,2.3-1.7L23,49.8c-0.1-0.6,0.1-1.2,0.5-1.5l5.9-5.1c1-0.9,0.5-2.6-0.9-2.7
	l-7.7-0.7c-0.6,0-1.1-0.4-1.3-0.9l-3-7.1c-0.5-1.3-2.3-1.3-2.9,0l-3,7.1c-0.2,0.5-0.7,0.9-1.3,0.9l-7.7,0.7
	c-1.4,0.1-1.9,1.8-0.9,2.7l5.9,5.1c0.4,0.4,0.6,1,0.5,1.5l-1.8,7.6c-0.3,1.3,1.1,2.4,2.3,1.7l6.6-4C14.7,54.7,15.3,54.7,15.8,55
	L15.8,55z"/>
<path class="st0" d="M15.8,85l6.6,4c1.2,0.7,2.6-0.3,2.3-1.7L23,79.8c-0.1-0.6,0.1-1.2,0.5-1.5l5.9-5.1c1-0.9,0.5-2.6-0.9-2.7
	l-7.7-0.7c-0.6,0-1.1-0.4-1.3-0.9l-3-7.1c-0.5-1.3-2.3-1.3-2.9,0l-3,7.1c-0.2,0.5-0.7,0.9-1.3,0.9l-7.7,0.7
	c-1.4,0.1-1.9,1.8-0.9,2.7l5.9,5.1c0.4,0.4,0.6,1,0.5,1.5l-1.8,7.6c-0.3,1.3,1.1,2.4,2.3,1.7l6.6-4C14.7,84.7,15.3,84.7,15.8,85
	L15.8,85z"/>
<path class="st1" d="M13.6,61.7l-3,7.1c-0.2,0.5-0.7,0.9-1.3,0.9l-7.7,0.7c-1.4,0.1-1.9,1.8-0.9,2.7l5.9,5.1c0.4,0.4,0.6,1,0.5,1.5
	l-1.8,7.6c-0.3,1.3,1.1,2.4,2.3,1.7l6.6-4c0.2-0.1,0.5-0.2,0.8-0.2V60.7C14.4,60.7,13.8,61.1,13.6,61.7z"/>
</svg>